<svg width="128" height="128" viewBox="0 0 128 128" fill="none" xmlns="http://www.w3.org/2000/svg">
    <rect width="128" height="128" rx="32" fill="#565656"/>
    <g clip-path="url(#clip0_9_39)">
        <path d="M24.1617 73.9939V68.6277H49.9256V73.9939H24.1617ZM41.272 45.5385L58.9724 82.4616H52.0398L35.9619 48H38.4695L22.3916 82.4616H15.459L33.1594 45.5385H41.272ZM59.3569 62.5231H70.813V67.7908H59.3569V62.5231ZM75.562 70.4492H82.1505C82.3471 71.9262 82.9535 73.2225 83.9697 74.3385C85.0186 75.4544 86.3952 76.3241 88.0998 76.9477C89.8042 77.5385 91.7709 77.8339 93.9999 77.8339C97.3105 77.8339 99.9327 77.3252 101.867 76.3077C103.801 75.2575 104.768 73.8462 104.768 72.0739C104.768 70.6298 104.21 69.5467 103.096 68.8246C101.981 68.1025 99.9655 67.561 97.0483 67.2L89.0831 66.1662C84.6252 65.5754 81.3801 64.476 79.3479 62.8677C77.3484 61.2267 76.3487 58.9129 76.3487 55.9262C76.3487 53.6616 77.0206 51.7087 78.3646 50.0677C79.7413 48.3939 81.6751 47.1139 84.1664 46.2277C86.6574 45.3087 89.5748 44.8492 92.9182 44.8492C96.2288 44.8492 99.1625 45.3416 101.719 46.3262C104.276 47.3108 106.308 48.6892 107.816 50.4616C109.357 52.201 110.192 54.2523 110.324 56.6154H103.735C103.571 55.3026 103.014 54.1703 102.063 53.2185C101.146 52.2667 99.9 51.5282 98.3267 51.0031C96.7533 50.4451 94.9013 50.1662 92.7707 50.1662C89.755 50.1662 87.3458 50.6585 85.543 51.6431C83.7402 52.6277 82.8388 53.9733 82.8388 55.68C82.8388 56.9928 83.3632 58.0102 84.4122 58.7323C85.4939 59.4216 87.3623 59.9467 90.0173 60.3077L98.0808 61.44C101.391 61.8995 103.997 62.5231 105.898 63.3108C107.832 64.0656 109.209 65.0995 110.029 66.4123C110.848 67.6923 111.258 69.3498 111.258 71.3846C111.258 73.7477 110.537 75.8154 109.094 77.5877C107.652 79.36 105.62 80.7385 102.998 81.7231C100.408 82.6749 97.376 83.1508 93.9016 83.1508C90.3615 83.1508 87.2311 82.6256 84.5105 81.5754C81.8226 80.4923 79.6921 78.999 78.1187 77.0954C76.5454 75.1918 75.693 72.9764 75.562 70.4492Z" fill="white"/>
    </g>
    <defs>
        <clipPath id="clip0_9_39">
            <rect width="96" height="38.4" fill="white" transform="translate(15.3604 44.8)"/>
        </clipPath>
    </defs>
</svg>
