<svg width="17" height="17" viewBox="0 0 17 17" fill="none" xmlns="http://www.w3.org/2000/svg">
<path d="M0.164415 0.164415C0.383635 -0.0548049 0.73906 -0.0548049 0.95828 0.164415L16.8356 16.0417C17.0548 16.2609 17.0548 16.6164 16.8356 16.8356C16.6164 17.0548 16.2609 17.0548 16.0417 16.8356L0.164415 0.95828C-0.0548044 0.73906 -0.0548049 0.383635 0.164415 0.164415Z" fill="white"/>
<path d="M0.164415 16.8356C-0.054805 16.6164 -0.054805 16.2609 0.164415 16.0417L16.0417 0.164423C16.2609 -0.0547969 16.6164 -0.0547974 16.8356 0.164422C17.0548 0.383642 17.0548 0.739067 16.8356 0.958287L0.958281 16.8356C0.739061 17.0548 0.383635 17.0548 0.164415 16.8356Z" fill="white"/>
</svg>
