<svg width="56" height="22" viewBox="0 0 56 22" fill="none" xmlns="http://www.w3.org/2000/svg">
<g clip-path="url(#clip0_8_36)">
<path d="M5.05802 16.7256V13.6513H19.8644V16.7256H5.05802ZM14.8912 0.42307L25.0635 21.5769H21.0794L11.8395 1.83333H13.2806L4.04079 21.5769H0.0566406L10.2289 0.42307H14.8912ZM25.2845 10.1538H31.8682V13.1718H25.2845V10.1538ZM34.5974 14.6949H38.3838C38.4968 15.541 38.8453 16.2837 39.4293 16.9231C40.032 17.5624 40.8232 18.0607 41.8028 18.4179C42.7823 18.7564 43.9126 18.9256 45.1936 18.9256C47.0961 18.9256 48.6031 18.6342 49.7146 18.0513C50.826 17.4496 51.3817 16.641 51.3817 15.6256C51.3817 14.7983 51.0614 14.1778 50.421 13.7641C49.7805 13.3504 48.622 13.0401 46.9455 12.8333L42.3679 12.241C39.806 11.9026 37.9411 11.2727 36.7732 10.3513C35.6241 9.41113 35.0495 8.08549 35.0495 6.37435C35.0495 5.07692 35.4357 3.95811 36.208 3.01794C36.9992 2.05897 38.1106 1.32564 39.5423 0.817944C40.9739 0.291446 42.6505 0.0281982 44.5719 0.0281982C46.4745 0.0281982 48.1605 0.31025 49.6298 0.874354C51.0991 1.43846 52.2671 2.2282 53.1336 3.24358C54.0189 4.24016 54.4993 5.41538 54.5747 6.76923H50.7883C50.6941 6.01709 50.3739 5.36837 49.8276 4.82307C49.3001 4.27778 48.5843 3.8547 47.6801 3.55384C46.7759 3.23419 45.7116 3.07435 44.4872 3.07435C42.7541 3.07435 41.3695 3.3564 40.3335 3.92051C39.2974 4.48461 38.7794 5.25555 38.7794 6.23333C38.7794 6.98547 39.0807 7.56835 39.6836 7.98205C40.3052 8.37692 41.379 8.6778 42.9048 8.88461L47.5388 9.53333C49.4414 9.79655 50.939 10.1538 52.0316 10.6051C53.143 11.0376 53.9342 11.6299 54.4051 12.382C54.876 13.1154 55.1116 14.065 55.1116 15.2308C55.1116 16.5846 54.6971 17.7692 53.8683 18.7846C53.0394 19.8 51.8715 20.5897 50.3645 21.1538C48.8763 21.6991 47.1338 21.9718 45.1371 21.9718C43.1026 21.9718 41.3036 21.6709 39.7401 21.0692C38.1954 20.4487 36.971 19.5932 36.0668 18.5026C35.1626 17.4119 34.6727 16.1427 34.5974 14.6949Z" fill="white"/>
</g>
<defs>
<clipPath id="clip0_8_36">
<rect width="55.1705" height="22" fill="white"/>
</clipPath>
</defs>
</svg>
