<svg width="22" height="22" viewBox="0 0 22 22" fill="none" xmlns="http://www.w3.org/2000/svg">
<path fill-rule="evenodd" clip-rule="evenodd" d="M18.9341 13.6912C19.6639 14.4036 20.4341 15.074 21.0887 15.8583C21.3778 16.2069 21.6515 16.5666 21.8609 16.9711C22.1577 17.5461 21.8889 18.1788 21.3733 18.2132L18.1683 18.2117C17.3417 18.2803 16.6822 17.9475 16.1278 17.3824C15.684 16.9304 15.2731 16.4493 14.8464 15.9821C14.6715 15.7911 14.4884 15.6114 14.2697 15.4694C13.8321 15.1854 13.4523 15.2723 13.2023 15.7287C12.9477 16.1928 12.8899 16.7067 12.8649 17.224C12.8306 17.9787 12.6024 18.1771 11.8443 18.2117C10.2242 18.2881 8.6866 18.0429 7.25822 17.2256C5.99891 16.5051 5.02236 15.488 4.17239 14.3364C2.51748 12.0941 1.25014 9.63023 0.111107 7.09729C-0.14528 6.52661 0.0422219 6.22028 0.671878 6.20944C1.71745 6.18913 2.76288 6.19057 3.80968 6.20799C4.23463 6.21421 4.51595 6.45795 4.68003 6.8594C5.24572 8.25034 5.9379 9.5737 6.80674 10.8003C7.03812 11.1269 7.27405 11.4535 7.61002 11.6833C7.9817 11.9379 8.26468 11.8535 8.43954 11.4395C8.55049 11.1769 8.59906 10.8942 8.62407 10.613C8.70691 9.64562 8.71782 8.67992 8.57254 7.71596C8.48334 7.11435 8.14448 6.72489 7.54417 6.61104C7.23783 6.553 7.28344 6.43901 7.43177 6.26416C7.68938 5.96259 7.93168 5.77487 8.41467 5.77487H12.0368C12.6071 5.88742 12.7337 6.14359 12.8118 6.71737L12.8149 10.7409C12.8087 10.963 12.9258 11.6221 13.3259 11.7691C13.6461 11.8738 13.8572 11.6176 14.0493 11.4146C14.9166 10.4942 15.5355 9.40637 16.0885 8.27998C16.3339 7.7847 16.5449 7.27033 16.7494 6.7564C16.9009 6.37504 17.1386 6.18739 17.5682 6.1957L21.0543 6.19881C21.1577 6.19881 21.2623 6.20033 21.3624 6.21746C21.9498 6.31757 22.1108 6.57027 21.9294 7.14391C21.6435 8.04391 21.0873 8.79391 20.5434 9.54739C19.9621 10.3518 19.3403 11.1287 18.7638 11.9379C18.2341 12.6769 18.2761 13.0494 18.9341 13.6912Z" fill="white"/>
</svg>
